<?xml version="1.0" encoding="UTF-8"?>
<svg width="700px" height="700px" viewBox="0 0 700 700" version="1.1" xmlns="http://www.w3.org/2000/svg" xmlns:xlink="http://www.w3.org/1999/xlink">
    <title>favicon</title>
    <g id="favicon" stroke="none" stroke-width="1" fill="none" fill-rule="evenodd">
        <rect id="Rectangle" fill="#5D4364" x="0" y="0" width="700" height="700" rx="46"></rect>
        <g id="wincher_glyph-w" transform="translate(59.000000, 122.000000)" fill-rule="nonzero">
            <path d="M310.212775,53.7977528 C311.532999,53.7977528 312.8453,54.0014862 314.10327,54.4017474 C320.850066,56.5484455 324.577589,63.7530503 322.42893,70.4936825 L202.387985,447.077953 C200.694138,452.391772 195.753718,456 190.171832,456 L106.824144,456 C105.503921,456 104.191619,455.796268 102.933649,455.396005 C96.1868546,453.249308 92.4593306,446.044703 94.6079914,439.30407 L214.648935,62.7198006 C216.342782,57.4059806 221.283201,53.7977528 226.865088,53.7977528 L310.212775,53.7977528 Z M573.076329,0.607175274 C579.821366,2.75938158 583.542997,9.96702751 581.388822,16.705903 L443.421986,447.087926 C441.724969,452.396683 436.787038,456 431.209018,456 L347.868343,456 C346.544609,456 345.228856,455.795182 343.967869,455.392826 C337.222832,453.240618 333.501201,446.032972 335.655376,439.294097 L473.622212,8.9120745 C475.319229,3.60331746 480.257158,0 485.83518,0 L576.868272,0 C578.192009,0 571.815342,0.204819067 573.076329,0.607175274 Z" id="Combined-Shape" fill="#FF8F3B"></path>
            <path d="M399.279851,243.572387 L455,415.414698 L444.897821,447.030455 C443.194962,452.373446 438.240035,456 432.642815,456 L388.661221,276.794013 L399.279851,243.572387 Z M157.236142,243 L213.110669,415.311565 L203.034159,447.020417 C202.869066,447.539889 202.673237,448.043164 202.449068,448.528488 L146,278.359052 L157.236142,243 Z" id="Combined-Shape" fill="#FF7F3B"></path>
            <path d="M311.242668,54 C316.820027,54 321.756439,57.6064134 323.448913,62.9175614 L323.448913,62.9175614 L443.392502,439.312465 C445.539419,446.049709 441.814919,453.250691 435.073595,455.396309 C433.816646,455.79637 432.505409,456 431.186255,456 L431.186255,456 L347.906164,456 C342.328804,456 337.392393,452.393586 335.699919,447.082439 L335.699919,447.082439 L215.756331,70.6875342 C213.609412,63.9502915 217.333913,56.7493095 224.075236,54.6036908 C225.332185,54.2036309 226.643423,54 227.962576,54 L227.962576,54 L311.242668,54 Z M96.0638061,138.496815 C101.624702,138.496815 106.550498,142.082327 108.25643,147.371888 L108.25643,147.371888 L202.480963,439.269976 C204.651361,445.999702 200.951993,453.213613 194.218193,455.382697 C192.948398,455.79172 191.622462,456 190.288339,456 L190.288339,456 L107.038287,456 C101.477391,456 96.5515955,452.414488 94.845663,447.124928 L94.845663,447.124928 L0.621130165,155.226838 C-1.54926825,148.497114 2.15009983,141.283204 8.88390005,139.114119 C10.1536956,138.705094 11.4796307,138.496815 12.813754,138.496815 L12.813754,138.496815 L96.0638061,138.496815 Z" id="Combined-Shape" fill="#FFA23A"></path>
        </g>
    </g>
</svg>